<svg width="180" height="34" viewBox="0 0 180 34" fill="none" xmlns="http://www.w3.org/2000/svg">
<path d="M58.4658 11.6882L57.709 15.2487H56.889L56.5356 16.9115H45.7556L46.109 15.2487H45.389L45.6094 14.2119L43.0029 18.4766H44.9229L44.3283 21.2741H38.7083L39.3029 18.4766L40.3779 16.6181H39.3179L39.9126 13.8206L42.8004 8.89074L46.3723 9.39937L44.0831 13.0185L45.8132 13.2533L46.0252 12.2556H47.6452L49.4739 9.20374H56.1739L56.5052 12.2556H57.2052L58.4658 11.6882ZM51.1177 12.1969L49.9302 14.114H53.3302L53.2377 12.1969H51.1177ZM56.6625 17.5376L54.8537 26.0474L53.5972 26.5952H43.6372L44.5853 22.1349L42.0172 26.5952H37.3772L38.3253 22.1349H42.0453L42.4709 21.4502L44.6227 21.9588L45.5625 17.5376H56.6625ZM52.1273 22.8782L52.7053 20.159H48.3853L47.8073 22.8782H52.1273ZM61.1267 17.518H58.7867L59.2607 15.2878H59.8207L60.0047 14.7987H59.4247L59.8987 12.5686H62.9987L63.0985 12.0991L60.4252 12.2556L60.6224 9.63413L69.623 9.0668L69.6217 11.7078L66.7842 11.8839L66.6387 12.5686H68.4787L69.7393 12.0012L69.1447 14.7987H68.6647L68.5348 17.0094H66.4148L66.5647 14.7987H66.0647L65.416 17.8506H61.976L62.6247 14.7987H62.1647L61.1267 17.518ZM73.4883 21.2741L73.5273 22.8782H74.1873L75.4437 22.3305L74.5331 26.6148H69.8731L69.5283 21.2741H68.7883L67.6489 26.6343H63.8889L65.0283 21.2741H64.4083L61.8131 26.6148H57.1331L57.9273 22.8782H59.7273L60.4483 21.2741H58.1883L58.8203 18.3005H65.6603L65.835 17.4789H69.035L69.6296 14.6814L70.669 15.2487H73.429L74.7139 9.20374H78.0939L76.4098 17.1267L75.1534 17.6745H69.5534L69.4203 18.3005H75.1603L76.4209 17.7332L75.6683 21.2741H73.4883ZM72.9553 14.4662H69.7553L70.7949 9.57544H73.9949L72.9553 14.4662ZM89.3375 9.75151L85.8737 26.0474L84.6131 26.6148H81.2531L82.1679 22.3109L83.1873 22.8782H83.3473L85.5013 12.7446H84.4013L80.5056 26.5561H76.5656L77.3473 22.8782H78.2273L81.0413 12.7446H79.5813L80.2175 9.75151H81.8775L82.2028 8.59729H85.5828L85.2575 9.75151H89.3375ZM94.1137 26.0474L92.8531 26.6148H86.3731L89.9949 9.57544H97.6149L94.1137 26.0474ZM91.6473 22.8782L93.8345 12.5881H92.4945L90.3073 22.8782H91.6473ZM104.622 22.5261H102.002L102.672 19.3765H104.752L106.056 18.3201H103.096L104.206 13.0968H108.746L108.85 12.6077H104.19L104.827 9.61457H109.487L109.649 8.85161H113.029L112.867 9.61457H116.107L117.363 9.0668L116.61 12.6077H112.23L112.126 13.0968H116.446L115.457 17.7528L114.176 18.3201H111.016L110.754 19.5525L113.276 18.3201L115.33 21.0785L112.59 22.487L110.7 19.8069L110.122 22.5261H106.742L107.258 20.1003L104.622 22.5261ZM103.452 13.3511H98.8324L99.6266 9.61457H104.247L103.452 13.3511ZM113.727 22.8782L114.984 22.3305L114.073 26.6148H100.593L100.132 25.3041L98.8258 27.0256L95.9945 25.9496L97.9491 23.1521L99.1633 17.4397H97.9033L98.4563 14.8379H103.096L101.387 22.8782H113.727ZM106.39 16.0899H108.11L108.272 15.3269H106.552L106.39 16.0899ZM111.652 15.3269L111.49 16.0899H112.99L113.152 15.3269H111.652ZM135.529 17.6941L135.022 20.0807H129.322L126.918 17.6549H125.698L123.022 20.0807H116.982L117.406 18.0853H120.786L121.278 17.6549H117.778L118.243 15.4639H123.743L124.336 14.9357H118.496L119.71 9.22331H128.07L126.976 14.3684L125.892 14.8574L128.401 15.19L128.103 15.4639H130.423L130.451 15.0531H133.931L133.903 15.4639H134.703L135.96 14.9161L135.378 17.6549H131.258L131.726 18.0853H134.306L135.529 17.6941ZM128.47 9.22331H136.81L135.716 14.3684L134.456 14.9357H127.256L128.47 9.22331ZM124.128 12.9011L124.294 12.1186H122.254L122.088 12.9011H124.128ZM130.994 12.1186L130.828 12.9011H132.888L133.054 12.1186H130.994ZM124.49 26.067L123.209 26.6343H116.009L117.344 20.3546H125.704L124.49 26.067ZM133.23 26.067L131.969 26.6343H124.769L126.104 20.3546H134.444L133.23 26.067ZM121.903 23.3673L122.07 22.5848H120.03L119.863 23.3673H121.903ZM130.663 23.3673L130.83 22.5848H128.77L128.603 23.3673H130.663Z" fill="white"/>
<path d="M25.2568 10.973H12.9595C12.5673 10.973 12.1789 11.0504 11.8165 11.2005C11.4542 11.3506 11.1249 11.5703 10.8476 11.8476C10.5703 12.1249 10.3505 12.4543 10.2005 12.8166C10.0504 13.1789 9.97297 13.5673 9.97297 13.9595C9.97297 14.3517 10.0504 14.7401 10.2005 15.1024C10.3505 15.4647 10.5703 15.7941 10.8476 16.0714C11.1249 16.3487 11.4542 16.5684 11.8165 16.7185C12.1789 16.8686 12.5673 16.946 12.9595 16.946H17.1527L12.4959 22.9063C11.4777 22.8535 10.4747 22.6279 9.5307 22.2368C8.44374 21.7866 7.45608 21.1267 6.62416 20.2948C5.79223 19.4629 5.13237 18.4752 4.68212 17.3882C4.23186 16.3012 4 15.1361 4 13.9595C4 12.7829 4.23186 11.6177 4.68212 10.5307C5.13237 9.44375 5.79223 8.45609 6.62416 7.62416C7.45608 6.79223 8.44374 6.13237 9.5307 5.68212C10.6177 5.23186 11.7829 5 12.9595 5H30L25.2568 10.973Z" fill="white"/>
<path d="M27.2373 12.8789L22.9453 18.3965L22.3174 19.2031L26.8652 19.2031L13.5576 30.1621L18.9902 23.2275L19.623 22.4199L16.1025 22.4199L20.9238 16.1982L21.5488 15.3926L18.0146 15.3926L19.9004 12.8789L27.2373 12.8789Z" fill="url(#paint0_linear_552_13508)"/>
<path d="M27.2373 12.8789L22.9453 18.3965L22.3174 19.2031L26.8652 19.2031L13.5576 30.1621L18.9902 23.2275L19.623 22.4199L16.1025 22.4199L20.9238 16.1982L21.5488 15.3926L18.0146 15.3926L19.9004 12.8789L27.2373 12.8789Z" fill="url(#paint1_radial_552_13508)" style="mix-blend-mode:hard-light"/>
<path d="M27.2373 12.8789L22.9453 18.3965L22.3174 19.2031L26.8652 19.2031L13.5576 30.1621L18.9902 23.2275L19.623 22.4199L16.1025 22.4199L20.9238 16.1982L21.5488 15.3926L18.0146 15.3926L19.9004 12.8789L27.2373 12.8789Z" fill="url(#paint2_radial_552_13508)" style="mix-blend-mode:overlay"/>
<path d="M27.2373 12.8789L22.9453 18.3965L22.3174 19.2031L26.8652 19.2031L13.5576 30.1621L18.9902 23.2275L19.623 22.4199L16.1025 22.4199L20.9238 16.1982L21.5488 15.3926L18.0146 15.3926L19.9004 12.8789L27.2373 12.8789Z" stroke="url(#paint3_linear_552_13508)" style="mix-blend-mode:overlay"/>
<defs>
<linearGradient id="paint0_linear_552_13508" x1="18.948" y1="13.433" x2="25.448" y2="25.7303" gradientUnits="userSpaceOnUse">
<stop stop-color="#FFAD42"/>
<stop offset="0.331185" stop-color="#FFD042"/>
<stop offset="0.626753" stop-color="#FFD042"/>
<stop offset="1" stop-color="#FFF242"/>
</linearGradient>
<radialGradient id="paint1_radial_552_13508" cx="0" cy="0" r="1" gradientUnits="userSpaceOnUse" gradientTransform="translate(17.8939 32.2303) rotate(-87.8789) scale(9.49301 10.2417)">
<stop stop-color="#FFF3BD"/>
<stop offset="1" stop-color="#FFF3BD" stop-opacity="0"/>
</radialGradient>
<radialGradient id="paint2_radial_552_13508" cx="0" cy="0" r="1" gradientUnits="userSpaceOnUse" gradientTransform="translate(20.7047 12.3789) rotate(66.1613) scale(8.25864 8.91002)">
<stop stop-color="#FFF3BD"/>
<stop offset="1" stop-color="#FFF3BD" stop-opacity="0"/>
</radialGradient>
<linearGradient id="paint3_linear_552_13508" x1="20.7047" y1="12.3789" x2="20.7047" y2="33.9871" gradientUnits="userSpaceOnUse">
<stop stop-color="#FFF3BD" stop-opacity="0"/>
<stop offset="0.6" stop-color="#FFF3BD"/>
</linearGradient>
</defs>
</svg>
