<svg xmlns="http://www.w3.org/2000/svg" viewBox="0 0 48 48" fill="none">
  <path fill="#1AAD19" d="M20.5 12C11.9 12 5 17.5 5 24.3c0 3.8 2.2 7.2 5.5 9.5l-1.1 4.3 5.1-2.5c1.8.6 3.8.9 6 .9 8.6 0 15.5-5.5 15.5-12.2S29.1 12 20.5 12Z"/>
  <path fill="#fff" d="M15.1 21.6a1.9 1.9 0 1 0 0-3.8 1.9 1.9 0 0 0 0 3.8ZM25.9 21.6a1.9 1.9 0 1 0 0-3.8 1.9 1.9 0 0 0 0 3.8Z"/>
  <path fill="#07C160" d="M31 23.6c-6.9 0-12.5 4.5-12.5 10 0 5.6 5.6 10 12.5 10 1.7 0 3.3-.3 4.7-.8l4.2 2-1-3.5c2.8-1.9 4.6-4.7 4.6-7.8 0-5.5-5.6-9.9-12.5-9.9Z"/>
  <path fill="#fff" d="M27.1 32.1a1.5 1.5 0 1 0 0-3 1.5 1.5 0 0 0 0 3ZM35.4 32.1a1.5 1.5 0 1 0 0-3 1.5 1.5 0 0 0 0 3Z"/>
</svg>
